# xmcd
#
# Track frame offsets:
#  150
#  14602
#  25475
#  37230
#  49017
#  60210
#  72712
#  86592
#  98157
#  108340
#  120140
#  132265
#  144185
#  155542
#  168527
#  180097
#  192457
#  206475
#  217287
#  228645
#  237702
#  252247
#
# Disc length: 3561 seconds
#
# Revision: 0
# Processed by: cddbd v1.5.1PL2 Copyright (c) Steve Scherf et al.
# Submitted via: Collectorz.com_Music_Collector 6.9
#
DISCID=3f0de716
DTITLE=Ike Turner and The Kings Of Rhythm - Rocks The Blues
DYEAR=1993
DGENRE=Blues - R&B
TTITLE0=Ike Turner - Cuban Getaway
TTITLE1=Ike Turner - You're Driving Me Insane
TTITLE2=Ike Turner - Troubles And Heartaches
TTITLE3=Dennis Binder - Nobody Wants Me
TTITLE4=Dennis Binder - Early Times
TTITLE5=Dennis Binder - You Got Me Way Down Here
TTITLE6=Dennis Binder - I Miss You So
TTITLE7=Little Johnny Burton - Talking About Me
TTITLE8=Little Johnny Burton - Why Did You Go Away
TTITLE9=Little Johnny Burton - Walk My Way Home
TTITLE10=Little Johnny Burton - One Day
TTITLE11=Lover Boy - The Way You Used To Treat Me
TTITLE12=Lover Boy - Why Did You Leave Me
TTITLE13=Clayton Love - Why Don't You Believe In Me
TTITLE14=Clayton Love - Wicked Little Baby
TTITLE15=Mary Sue - Everybody's Talking
TTITLE16=Mary Sue - Love Is A Gamble
TTITLE17=Ike Turner - Go To It ( Stringin' Along )
TTITLE18=Ike Turner - Loosely ( The Wild One )
TTITLE19=Mat Cockrell - Baby )Please
TTITLE20=Mat Cockrell - Gypsy Blues
TTITLE21=J.W. Walker - Why Won't You Be True
EXTD=
EXTT0=
EXTT1=
EXTT2=
EXTT3=
EXTT4=
EXTT5=
EXTT6=
EXTT7=
EXTT8=
EXTT9=
EXTT10=
EXTT11=
EXTT12=
EXTT13=
EXTT14=
EXTT15=
EXTT16=
EXTT17=
EXTT18=
EXTT19=
EXTT20=
EXTT21=
PLAYORDER=
